<svg width="1659" height="1252" viewBox="0 0 1659 1252" fill="none" xmlns="http://www.w3.org/2000/svg">
<ellipse cx="829.5" cy="626" rx="829.5" ry="626" fill="white"/>
<ellipse cx="829.5" cy="861" rx="619.5" ry="391" fill="#FAE4EF"/>
<path fill-rule="evenodd" clip-rule="evenodd" d="M545.61 872.701C562.633 872.256 579.805 872.997 596.829 874.773C602.602 875.365 610.596 876.253 620.218 877.142C723.694 747.168 714.96 769.077 682.392 601.8C682.392 601.8 649.973 670.783 643.756 687.067C598.606 808.01 615.333 796.019 545.61 872.701ZM1004.36 902.751C1042.26 891.649 1078.68 882.175 1110.06 877.882C1013.54 757.827 951.813 597.803 951.813 597.803C862.105 723.335 947.668 797.056 1004.36 902.751ZM1182.45 876.697C1169.57 881.435 1081.64 684.698 1074.98 668.119C1029.83 555.761 992.67 439.999 885.642 411.281C861.957 409.652 840.936 388.928 846.709 364.206C903.85 290.93 921.318 144.081 827.909 136.531C673.51 124.096 746.491 334.007 766.919 360.209C786.756 385.523 748.859 407.136 733.76 413.057C571.071 466.497 587.651 663.085 532.731 796.908C527.994 808.454 502.236 851.68 491.429 859.23C458.862 881.583 321.191 899.495 364.269 1025.17C403.202 1093.71 461.083 1121.99 532.583 1113.55C591.352 1106.59 647.901 1090.31 701.637 1064.11C787.2 1046.49 872.911 1047.97 958.327 1068.55C1010.29 1081.13 1061.06 1098.75 1114.8 1103.04C1161.13 1106.74 1206.87 1105.11 1247.14 1077.13C1375.34 988.019 1250.4 858.341 1182.45 876.697ZM974.61 911.781C978.015 910.745 981.42 909.709 984.825 908.673C981.42 909.561 978.015 910.597 974.61 911.781Z" fill="#CF9CC7"/>
<path fill-rule="evenodd" clip-rule="evenodd" d="M714.959 919.035C720.881 918.887 726.95 919.183 732.871 919.775C734.944 920.071 737.756 920.219 741.013 920.663C777.281 875.069 774.173 882.767 762.774 824.146C762.774 824.146 751.375 848.275 749.303 854.048C733.463 896.386 739.385 892.241 714.959 919.035ZM875.723 929.545C889.046 925.697 901.777 922.292 912.732 920.811C878.98 878.77 857.219 822.665 857.219 822.665C825.836 866.779 855.887 892.537 875.723 929.545ZM938.045 920.515C933.604 922.144 902.666 853.308 900.297 847.387C884.457 808.01 871.431 767.449 833.978 757.383C825.688 756.791 818.287 749.537 820.359 740.951C840.343 715.193 846.561 663.826 813.846 661.161C759.813 656.868 785.275 730.441 792.529 739.471C799.486 748.353 786.163 755.902 780.834 757.975C723.841 776.775 729.615 845.611 710.37 892.537C708.742 896.534 699.712 911.781 695.863 914.298C684.464 922.144 636.206 928.361 651.305 972.475C664.924 996.457 685.205 1006.37 710.37 1003.41C730.947 1001.05 750.783 995.272 769.584 986.094C799.634 979.877 829.685 980.469 859.588 987.723C877.796 992.164 895.56 998.233 914.36 999.861C930.644 1001.19 946.631 1000.6 960.695 990.831C1005.7 959.448 961.879 914.002 938.045 920.515ZM865.213 932.802C866.397 932.358 867.582 932.062 868.766 931.618C867.73 931.914 866.397 932.358 865.213 932.802Z" fill="#E6C0DA"/>
</svg>
